<svg xmlns="http://www.w3.org/2000/svg" viewBox="0 0 532 28" width="532" height="28"><path d="M25.7 16H2.3c-1.2 0-2.1-.9-2.1-2.1 0-1.2.9-2.1 2.1-2.1h23.5c1.2 0 2.1.9 2.1 2.1-.1 1.1-1 2.1-2.2 2.1m.1-12c1.2 0 2.1.9 2.1 2.1-.1 1.2-1 2.2-2.2 2.2H2.3C1.1 8.3.2 7.4.2 6.2.2 5 1.1 4 2.3 4h23.5m-.1 19.7c1.2 0 2.1-.9 2.2-2.1 0-1.2-.9-2.1-2.1-2.1H2.3c-1.2 0-2.1.9-2.1 2.1 0 1.2.9 2.1 2.1 2.1h23.4M53.686 16.034l-7.863-.12h-7.744c-2.587-.006-5.178-.006-7.765 0-1.192 0-2.085-.893-2.085-2.085-.006-1.185.888-2.069 2.085-2.063l23.45.12c1.198.006 2.101.899 2.106 2.085-.099 1.092-.992 2.085-2.184 2.085.006-.007.006-.016 0-.022m.1-12.012c1.191 0 2.084.894 2.084 2.085-.093 1.186-.987 2.168-2.184 2.163-2.587-.006-5.178-.006-7.765 0l-7.864.119c-2.587.005-5.168.016-7.743.021-1.192 0-2.085-.893-2.085-2.085.006-1.185.909-2.178 2.106-2.184l23.451-.119m-.17 19.663c1.191 0 2.085-.894 2.184-2.085 0-1.191-.893-2.085-2.085-2.085h-23.33c-1.192 0-2.085.894-2.085 2.085 0 1.191.893 2.085 2.085 2.085h23.231M81.638 16.154l-8.089-.544h-7.544c-2.541-.027-5.098-.027-7.643 0-1.16 0-2.031-.871-2.031-2.031-.026-1.132.844-1.959 2.031-1.933l23.274.544c1.19.027 2.103.897 2.13 2.031-.097 1.064-.968 2.032-2.128 2.032.026-.03.026-.073 0-.099m.096-12.052c1.161 0 2.032.87 2.032 2.031-.071 1.134-.941 2.055-2.128 2.029-2.541-.026-5.102-.026-7.643 0l-8.089.541c-2.54.027-5.055.073-7.544.099-1.16 0-2.031-.871-2.031-2.031.026-1.135.943-2.102 2.13-2.128l23.273-.541m-.416 19.529c1.161 0 2.031-.87 2.128-2.031 0-1.161-.871-2.031-2.031-2.031h-22.73c-1.16 0-2.031.87-2.031 2.031s.871 2.031 2.031 2.031h22.633M109.538 16.4l-8.549-1.413h-7.136c-2.447-.068-4.936-.068-7.391 0-1.098 0-1.922-.823-1.922-1.921-.068-1.021.756-1.734 1.922-1.666l22.912 1.413c1.175.068 2.109.891 2.177 1.921-.091 1.006-.915 1.921-2.013 1.921.068-.076.068-.187 0-.255m.092-12.136c1.098 0 1.921.823 1.921 1.921-.023 1.03-.847 1.826-2.013 1.758-2.447-.069-4.944-.069-7.391 0l-8.549 1.404c-2.447.068-4.826.187-7.136.255-1.098 0-1.922-.823-1.922-1.921.069-1.03 1.011-1.945 2.177-2.013l22.913-1.404m-.921 19.257c1.097 0 1.921-.823 2.012-1.921 0-1.098-.823-1.921-1.921-1.921H87.3c-1.098 0-1.921.823-1.921 1.921s.823 1.921 1.921 1.921h21.409M137.367 16.823l-9.341-2.908h-6.434c-2.285-.14-4.657-.14-6.959 0-.99 0-1.732-.742-1.732-1.732-.14-.832.602-1.346 1.732-1.206l22.291 2.908c1.148.14 2.118.882 2.258 1.732-.083.907-.825 1.732-1.815 1.732.14-.158.14-.386 0-.526m.083-12.28c.989 0 1.732.742 1.732 1.732.057.85-.685 1.429-1.815 1.289-2.285-.14-4.674-.14-6.959 0l-9.341 2.891c-2.285.14-4.43.385-6.434.525-.99 0-1.732-.742-1.732-1.732.14-.85 1.127-1.675 2.257-1.815l22.292-2.89m-1.791 18.789c.99 0 1.732-.742 1.815-1.732 0-.99-.742-1.732-1.732-1.732h-19.384c-.99 0-1.732.742-1.732 1.732s.742 1.732 1.732 1.732h19.301M165.116 17.444l-10.502-5.099h-5.405c-2.047-.246-4.248-.246-6.325 0-.832 0-1.455-.624-1.455-1.455-.246-.555.377-.779 1.455-.534l21.38 5.099c1.108.246 2.131.869 2.377 1.455-.07.762-.693 1.455-1.525 1.455.246-.276.246-.676 0-.921m.07-12.492c.831 0 1.455.624 1.455 1.455.176.586-.447.849-1.525.603-2.047-.246-4.278-.246-6.325 0l-10.503 5.068c-2.047.246-3.849.676-5.404.921-.832 0-1.455-.623-1.455-1.455.245-.585 1.299-1.278 2.376-1.524l21.381-5.068m-3.064 18.103c.831 0 1.455-.624 1.524-1.455 0-.831-.623-1.455-1.455-1.455h-16.282c-.832 0-1.455.624-1.455 1.455 0 .831.623 1.455 1.455 1.455h16.213M192.831 18.149l-11.824-7.59h-4.233c-1.777-.366-3.783-.366-5.605 0-.652 0-1.14-.489-1.14-1.14-.366-.24.123-.134 1.14.232l20.345 7.59c1.063.366 2.145.855 2.511 1.14-.054.597-.542 1.14-1.194 1.14.366-.412.366-1.006 0-1.372m.054-12.732c.652 0 1.14.489 1.14 1.14.312.286-.177.188-1.194-.177-1.777-.366-3.828-.366-5.605 0l-11.824 7.544c-1.777.366-3.188 1.006-4.233 1.372-.652 0-1.14-.489-1.14-1.14.366-.285 1.494-.828 2.512-1.194l20.344-7.545m-4.512 17.323c.651 0 1.14-.489 1.194-1.14 0-.651-.488-1.14-1.14-1.14h-12.754c-.652 0-1.14.489-1.14 1.14 0 .651.488 1.14 1.14 1.14h12.7M220.578 18.775l-12.995-9.801h-3.195c-1.537-.472-3.37-.472-4.966 0-.492 0-.86-.368-.86-.86-.473.04-.104.439.86.911l19.426 9.801c1.023.472 2.159.841 2.631.86-.041.45-.409.86-.901.86.473-.531.473-1.299 0-1.771m.041-12.945c.492 0 .86.369.86.86.432.02.063-.397-.901-.87-1.537-.472-3.429-.472-4.966 0l-12.995 9.742c-1.538.472-2.603 1.299-3.195 1.771-.492 0-.86-.369-.86-.86.472-.019 1.667-.429 2.631-.901l19.426-9.742m-5.797 16.63c.491 0 .86-.368.901-.86 0-.492-.369-.86-.86-.86h-9.626c-.491 0-.86.368-.86.86s.369.86.86.86h9.585M248.379 19.268L234.461 7.727h-2.377c-1.349-.556-3.045-.556-4.463 0-.366 0-.64-.275-.64-.64-.556.26-.282.889.64 1.445l18.703 11.541c.991.556 2.169.831 2.726.64-.031.336-.305.64-.671.64.556-.625.556-1.529 0-2.085m.031-13.113c.365 0 .64.275.64.64.525-.19.251-.859-.671-1.415-1.349-.556-3.114-.556-4.463 0l-13.918 11.471c-1.348.557-2.141 1.53-2.377 2.086-.366 0-.64-.274-.64-.64.556.191 1.804-.114 2.726-.67L248.41 6.155m-6.809 16.085c.365 0 .64-.274.67-.64 0-.366-.274-.64-.64-.64h-7.162c-.366 0-.64.274-.64.64s.274.64.64.64h7.132M276.226 19.645L261.601 6.771h-1.75c-1.204-.621-2.796-.621-4.077 0-.27 0-.472-.202-.472-.472-.62.429-.418 1.235.472 1.856l18.148 12.874c.968.621 2.178.823 2.798.472-.022.246-.224.471-.494.471.621-.698.621-1.706 0-2.327m.023-13.241c.269 0 .471.202.471.472.598-.352.396-1.213-.494-1.833-1.204-.621-2.873-.621-4.077 0l-14.625 12.796c-1.204.621-1.787 1.707-1.75 2.327-.27 0-.472-.202-.472-.471.621.351 1.908.126 2.798-.494l18.149-12.797m-7.584 15.667c.269 0 .471-.202.493-.471 0-.269-.202-.471-.471-.471h-5.274c-.269 0-.471.202-.471.471 0 .269.202.471.471.471h5.252M304.109 19.935L288.943 6.038h-1.271c-1.093-.67-2.605-.67-3.781 0-.196 0-.342-.146-.342-.342-.67.558-.524 1.5.342 2.169l17.723 13.897c.949.67 2.184.816 2.854.342-.017.179-.163.342-.359.342.67-.754.67-1.842 0-2.511m.017-13.34c.195 0 .342.147.342.342.653-.474.507-1.483-.359-2.153-1.093-.67-2.688-.67-3.781 0l-15.167 13.813c-1.093.669-1.517 1.841-1.27 2.511-.196 0-.342-.146-.342-.342.669.474 1.988.311 2.853-.358l17.724-13.813m-8.179 15.347c.196 0 .342-.147.359-.342 0-.195-.147-.342-.342-.342h-3.828c-.195 0-.342.147-.342.342 0 .195.147.342.342.342h3.811M332.02 20.157L316.436 5.475h-.901c-1.008-.708-2.458-.708-3.555 0-.138 0-.242-.104-.242-.243-.708.658-.604 1.703.242 2.411l17.398 14.682c.934.708 2.188.812 2.896.243-.012.127-.116.242-.254.242.707-.796.707-1.945 0-2.653m.011-13.415c.139 0 .243.104.243.242.696-.568.592-1.691-.254-2.399-1.008-.707-2.547-.707-3.555 0l-15.583 14.594c-1.008.708-1.309 1.946-.902 2.653-.138 0-.242-.104-.242-.242.707.569 2.05.453 2.896-.254l17.397-14.594m-8.635 15.101c.139 0 .243-.104.254-.243 0-.139-.104-.243-.242-.243h-2.716c-.138 0-.242.104-.242.243s.104.243.242.243h2.704M359.951 20.328L344.048 5.043h-.618c-.943-.737-2.346-.737-3.381 0-.095 0-.166-.072-.166-.167-.737.734-.665 1.86.166 2.596l17.147 15.285c.924.737 2.192.808 2.929.167-.008.087-.079.166-.174.166.736-.829.736-2.026 0-2.762m.007-13.474c.096 0 .167.072.167.167.729-.642.657-1.852-.174-2.588-.943-.737-2.438-.737-3.381 0l-15.903 15.193c-.942.736-1.148 2.025-.618 2.762-.095 0-.166-.071-.166-.167.737.642 2.097.563 2.929-.174l17.146-15.193m-8.985 14.912c.095 0 .166-.071.174-.166 0-.095-.071-.166-.166-.166h-1.862c-.095 0-.166.071-.166.166 0 .095.071.166.166.166h1.854M387.898 20.457L371.753 4.715h-.403c-.893-.759-2.26-.759-3.248 0-.062 0-.109-.047-.109-.109-.758.792-.712 1.978.109 2.737l16.956 15.742c.916.759 2.195.805 2.954.109-.005.057-.052.108-.114.108.759-.853.759-2.086 0-2.845m.005-13.517c.062 0 .109.046.109.108.753-.696.707-1.972-.114-2.731-.893-.759-2.355-.759-3.248 0l-16.145 15.648c-.893.758-1.028 2.086-.403 2.845-.062 0-.109-.047-.109-.109.759.697 2.133.645 2.954-.114L387.903 6.94m-9.251 14.768c.062 0 .108-.046.114-.108 0-.062-.047-.108-.109-.108h-1.214c-.062 0-.109.046-.109.108s.047.108.109.108h1.209M415.859 20.553L399.534 4.471h-.243c-.857-.775-2.197-.775-3.15 0-.038 0-.066-.028-.066-.065-.775.834-.747 2.066.066 2.841l16.815 16.082c.909.775 2.197.803 2.972.065-.003.034-.031.066-.069.066.775-.872.775-2.132 0-2.907m.003-13.55c.038 0 .066.028.066.066.772-.738.744-2.063-.069-2.838-.856-.775-2.293-.775-3.15 0l-16.325 15.985c-.856.775-.937 2.131-.243 2.907-.038 0-.066-.029-.066-.066.775.738 2.16.706 2.972-.069l16.815-15.985m-9.448 14.663c.037 0 .065-.029.068-.066 0-.037-.028-.066-.065-.066h-.734c-.037 0-.065.029-.065.066 0 .037.028.066.065.066h.731M443.832 20.622L427.378 4.298h-.13c-.83-.787-2.151-.787-3.08 0-.02 0-.035-.015-.035-.035-.786.865-.771 2.129.035 2.915l16.715 16.324c.905.787 2.199.802 2.985.035-.001.018-.016.035-.036.035.786-.885.786-2.164 0-2.95m.001-13.574c.02 0 .035.015.035.035.785-.766.77-2.126-.036-2.913-.83-.787-2.25-.787-3.08 0l-16.454 16.225c-.83.787-.873 2.164-.13 2.95-.02 0-.035-.015-.035-.035.787.767 2.179.751 2.985-.036l16.715-16.226m-9.589 14.587c.02 0 .035-.015.036-.035 0-.02-.014-.035-.034-.035h-.392c-.02 0-.034.015-.034.035 0 .02.014.035.034.035h.39M471.813 20.667L455.275 4.184h-.055c-.812-.795-2.121-.795-3.033 0-.009 0-.015-.007-.015-.015-.795.885-.788 2.17.015 2.964l16.648 16.483c.902.795 2.199.801 2.994.015-.001.008-.007.015-.016.015.795-.894.795-2.185 0-2.979m.001-13.589c.009 0 .015.007.015.015.794-.786.787-2.169-.016-2.963-.812-.795-2.221-.795-3.033 0l-16.538 16.383c-.813.795-.831 2.185-.055 2.979-.009 0-.015-.006-.015-.014.794.785 2.191.778 2.994-.016l16.648-16.384m-9.682 14.537c.008 0 .015-.007.015-.015s-.006-.015-.014-.015h-.166c-.008 0-.014.007-.014.015s.006.015.014.015h.165M499.803 20.692L483.218 4.12h-.013c-.803-.799-2.105-.799-3.008 0-.002 0-.004-.002-.004-.004-.798.897-.797 2.193.004 2.992l16.611 16.572c.901.799 2.2.8 2.999.004 0 .001-.002.003-.004.003.799-.898.799-2.196 0-2.995m0-13.597c.002 0 .004.001.004.003.798-.796.797-2.192-.004-2.991-.803-.799-2.205-.799-3.008 0L480.21 20.579c-.803.799-.807 2.197-.013 2.995-.002 0-.004-.001-.004-.003.799.796 2.198.795 2.999-.004l16.611-16.472m-9.733 14.509c.002 0 .003-.002.003-.004s-.001-.004-.003-.004h-.04c-.002 0-.003.002-.003.004s.001.004.003.004h.04M527.8 20.7L511.2 4.1c-.8-.8-2.1-.8-3 0-.8.9-.8 2.2 0 3l16.6 16.6c.9.8 2.2.8 3 0 .8-.9.8-2.2 0-3m0-13.6c.8-.8.8-2.2 0-3-.8-.8-2.2-.8-3 0l-16.6 16.5c-.8.8-.8 2.2 0 3 .8.8 2.2.8 3 0l16.6-16.5m-9.75 14.5" fill="#000000"/></svg>